<svg width="171" height="44" viewBox="0 0 171 44" fill="none" xmlns="http://www.w3.org/2000/svg">
<g clip-path="url(#clip0_51_3983)">
<mask id="mask0_51_3983" style="mask-type:luminance" maskUnits="userSpaceOnUse" x="0" y="0" width="171" height="44">
<path d="M50.8451 13.8462H54.9822V30.5249H50.8451V13.8462ZM56.6232 24.2274C56.6232 20.1024 59.1606 17.6412 63.0771 17.6412C66.9935 17.6412 69.531 20.1024 69.531 24.2274C69.531 28.3524 67.0487 30.8274 63.0771 30.8274C59.1055 30.8274 56.6232 28.4212 56.6232 24.2274ZM65.3801 24.2274C65.3801 21.9587 64.4837 20.6249 63.0771 20.6249C61.6705 20.6249 60.7879 21.9999 60.7879 24.2274C60.7879 26.4549 61.6567 27.8024 63.0771 27.8024C64.4975 27.8024 65.3801 26.5374 65.3801 24.2412V24.2274ZM71.0893 31.3362H75.0609C75.25 31.7549 75.5695 32.1015 75.972 32.3245C76.3746 32.5474 76.8386 32.6349 77.2949 32.5737C78.867 32.5737 79.6944 31.7212 79.6944 30.4837V28.1737H79.6117C79.2821 28.8817 78.7472 29.4749 78.0761 29.8769C77.4051 30.2788 76.6286 30.471 75.8469 30.4287C72.8269 30.4287 70.8273 28.1324 70.8273 24.1862C70.8273 20.2399 72.7303 17.7512 75.9021 17.7512C76.7083 17.7197 77.5048 17.9346 78.1851 18.3671C78.8654 18.7996 79.3968 19.4291 79.7082 20.1712V17.8749H83.8453V30.3874C83.8453 33.3987 81.1838 35.2687 77.2535 35.2687C73.5991 35.2687 71.3237 33.6324 71.0893 31.3499V31.3362ZM79.7082 24.2137C79.7082 22.2062 78.7843 20.9412 77.3225 20.9412C75.8607 20.9412 74.9644 22.1924 74.9644 24.2137C74.9644 26.2349 75.8469 27.3762 77.3225 27.3762C78.7981 27.3762 79.7082 26.2624 79.7082 24.2274V24.2137ZM85.4036 24.2137C85.4036 20.0887 87.9411 17.6274 91.8575 17.6274C95.774 17.6274 98.3252 20.0887 98.3252 24.2137C98.3252 28.3387 95.8429 30.8137 91.8575 30.8137C87.8721 30.8137 85.4036 28.4212 85.4036 24.2274V24.2137ZM94.1605 24.2137C94.1605 21.9449 93.2641 20.6112 91.8575 20.6112C90.4509 20.6112 89.6373 21.9999 89.6373 24.2412C89.6373 26.4824 90.5061 27.8162 91.9127 27.8162C93.3193 27.8162 94.1605 26.5374 94.1605 24.2412V24.2137ZM99.8973 14.8774C99.8864 14.461 99.9999 14.0507 100.223 13.6985C100.447 13.3464 100.77 13.0683 101.152 12.8995C101.534 12.7307 101.957 12.6788 102.369 12.7504C102.781 12.822 103.162 13.0138 103.464 13.3015C103.766 13.5893 103.976 13.96 104.066 14.3668C104.157 14.7735 104.124 15.1978 103.973 15.5861C103.821 15.9743 103.557 16.309 103.215 16.5475C102.872 16.7861 102.466 16.9179 102.049 16.9262C101.772 16.9452 101.494 16.9068 101.232 16.8136C100.971 16.7204 100.732 16.5743 100.53 16.3844C100.328 16.1947 100.167 15.9652 100.058 15.7106C99.9495 15.456 99.8946 15.1817 99.8973 14.9049V14.8774ZM99.8973 17.9024H104.034V30.5249H99.8973V17.9024ZM119.052 24.2137C119.052 28.3387 117.218 30.6899 114.074 30.6899C113.268 30.7415 112.465 30.545 111.774 30.127C111.084 29.7089 110.538 29.0894 110.212 28.3524H110.13V34.5674H105.993V17.8749H110.13V20.1299H110.212C110.523 19.3807 111.058 18.7452 111.744 18.3097C112.43 17.8743 113.234 17.66 114.046 17.6962C117.218 17.7512 119.107 20.1162 119.107 24.2412L119.052 24.2137ZM114.915 24.2137C114.915 22.2062 113.991 20.9274 112.543 20.9274C111.095 20.9274 110.171 22.2199 110.157 24.2137C110.143 26.2074 111.095 27.4862 112.543 27.4862C113.991 27.4862 114.915 26.2349 114.915 24.2412V24.2137ZM126.154 17.6137C129.588 17.6137 131.67 19.2362 131.767 21.8349H128.002C128.002 20.9412 127.257 20.3774 126.113 20.3774C124.968 20.3774 124.458 20.8174 124.458 21.4637C124.458 22.1099 124.913 22.3162 125.837 22.5087L128.485 23.0449C131.008 23.5812 132.084 24.5987 132.084 26.5099C132.084 29.1224 129.698 30.7999 126.182 30.7999C122.665 30.7999 120.362 29.1224 120.183 26.5512H124.168C124.292 27.4862 125.037 28.0362 126.251 28.0362C127.464 28.0362 128.016 27.6374 128.016 26.9774C128.016 26.3174 127.63 26.1799 126.637 25.9737L124.251 25.4649C121.783 24.9562 120.486 23.6499 120.486 21.7249C120.514 19.2499 122.734 17.6412 126.154 17.6412V17.6137ZM145.888 30.4974H141.903V28.1462H141.82C141.601 28.9356 141.118 29.6265 140.45 30.1043C139.783 30.582 138.972 30.8178 138.152 30.7724C137.523 30.8081 136.894 30.7088 136.307 30.4812C135.721 30.2537 135.19 29.9033 134.751 29.4535C134.311 29.0039 133.974 28.4653 133.761 27.8745C133.549 27.2837 133.466 26.6542 133.518 26.0287V17.8749H137.655V25.0799C137.655 26.5787 138.427 27.3762 139.71 27.3762C140.011 27.3767 140.308 27.3134 140.583 27.19C140.856 27.0667 141.101 26.8863 141.3 26.6611C141.497 26.4357 141.646 26.1707 141.733 25.8839C141.82 25.5969 141.846 25.2947 141.806 24.9974V17.8749H145.943L145.888 30.4974ZM147.888 17.8749H151.887V20.3087H151.97C152.189 19.5298 152.662 18.8453 153.313 18.3627C153.964 17.88 154.758 17.6262 155.569 17.6412C156.395 17.5753 157.214 17.8216 157.866 18.3312C158.517 18.8407 158.953 19.5761 159.085 20.3912H159.168C159.418 19.5674 159.936 18.8502 160.641 18.3523C161.344 17.8545 162.195 17.6042 163.057 17.6412C163.62 17.6224 164.179 17.7218 164.701 17.933C165.223 18.144 165.694 18.4623 166.084 18.8669C166.474 19.2715 166.775 19.7535 166.966 20.2813C167.157 20.8092 167.235 21.3714 167.194 21.9312V30.5249H163.057V23.0312C163.057 21.6562 162.436 21.0237 161.278 21.0237C161.02 21.0215 160.764 21.0746 160.528 21.1793C160.292 21.2841 160.081 21.4381 159.91 21.631C159.739 21.8239 159.611 22.0511 159.535 22.2974C159.459 22.5438 159.438 22.8034 159.471 23.0587V30.5249H155.541V22.9762C155.541 21.7112 154.921 21.0237 153.79 21.0237C153.529 21.0238 153.27 21.0791 153.033 21.1859C152.794 21.2929 152.58 21.449 152.408 21.6438C152.234 21.8387 152.105 22.068 152.026 22.3167C151.949 22.5653 151.924 22.8276 151.956 23.0862V30.5249H147.819L147.888 17.8749Z" fill="white"/>
<path d="M39.275 14.6025C38.5732 13.0025 37.6444 11.5114 36.5169 10.175C34.8503 8.14044 32.7705 6.48089 30.4143 5.30555C28.0581 4.13023 25.4789 3.46576 22.8466 3.35588C20.2143 3.24601 17.5884 3.69321 15.1419 4.66809C12.6955 5.64295 10.4838 7.12337 8.65245 9.0119C6.82113 10.9004 5.41169 13.1543 4.5169 15.6251C3.62212 18.0958 3.26226 20.7276 3.46103 23.3469C3.65982 25.9664 4.4127 28.5142 5.67016 30.8225C6.92762 33.131 8.66113 35.1477 10.7566 36.74C12.1012 37.7821 13.5869 38.6292 15.1695 39.2562C17.3883 40.1629 19.7632 40.6298 22.1612 40.6312C27.1111 40.6204 31.8547 38.653 35.3523 35.1605C38.8498 31.668 40.8159 26.9354 40.8195 22C40.8231 19.4542 40.2972 16.9353 39.275 14.6025ZM22.1474 7.13621C24.3009 7.13599 26.4283 7.60528 28.3806 8.51121C27.9046 8.71632 27.404 8.85958 26.8913 8.93747C25.2042 9.18097 23.6413 9.96195 22.4359 11.1638C21.2305 12.3657 20.4472 13.924 20.203 15.6062C20.0958 16.5496 19.6654 17.4273 18.9846 18.0911C18.3038 18.755 17.4141 19.1642 16.4658 19.25C14.7787 19.4935 13.2158 20.2745 12.0104 21.4764C10.805 22.6783 10.0217 24.2366 9.77748 25.9187C9.6948 26.8158 9.31094 27.6588 8.68805 28.3112C7.6133 26.047 7.1305 23.5484 7.28456 21.0481C7.43863 18.5478 8.22455 16.1269 9.56921 14.0108C10.9138 11.8948 12.7735 10.1523 14.9752 8.9455C17.1768 7.73871 19.6489 7.10685 22.1612 7.10871L22.1474 7.13621ZM10.7428 31.625C10.9083 31.4737 11.0738 31.3362 11.2393 31.1712C12.4661 29.9853 13.2536 28.4197 13.4733 26.73C13.5623 25.7801 13.9877 24.893 14.673 24.2275C15.3326 23.543 16.2203 23.1224 17.1691 23.045C18.8562 22.8015 20.419 22.0205 21.6245 20.8186C22.8299 19.6167 23.6132 18.0584 23.8574 16.3762C23.9171 15.3828 24.3446 14.4468 25.0571 13.75C25.733 13.0788 26.6291 12.6735 27.5808 12.6087C29.1307 12.3961 30.5762 11.7091 31.7179 10.6425C33.0179 11.7178 34.1192 13.0114 34.9724 14.465C34.92 14.5355 34.8599 14.6001 34.7931 14.6575C34.1349 15.348 33.2483 15.7778 32.2971 15.8675C30.6082 16.1067 29.043 16.8863 27.8367 18.0889C26.6306 19.2916 25.8487 20.8523 25.6088 22.5362C25.5115 23.4828 25.0891 24.3668 24.4131 25.0383C23.737 25.71 22.8489 26.1279 21.8992 26.2212C20.2071 26.4628 18.6384 27.2423 17.426 28.4436C16.2137 29.6451 15.4223 31.2044 15.1695 32.89C15.0953 33.5619 14.8638 34.2072 14.4938 34.7737C13.0789 33.9361 11.8117 32.8724 10.7428 31.625ZM22.1474 36.9325C20.7481 36.934 19.3554 36.7396 18.0103 36.355C18.4705 35.4997 18.7696 34.5676 18.8929 33.605C18.9895 32.6605 19.41 31.7781 20.0833 31.1069C20.7565 30.4356 21.6414 30.0164 22.5887 29.92C24.2783 29.6792 25.8443 28.8994 27.0525 27.6973C28.2605 26.4953 29.0459 24.9353 29.2908 23.2512C29.3874 22.3067 29.8079 21.4244 30.4812 20.7531C31.1544 20.0818 32.0393 19.6626 32.9866 19.5662C34.2581 19.4014 35.4699 18.9293 36.5169 18.1912C37.0983 20.3883 37.1671 22.689 36.7182 24.9168C36.2694 27.1445 35.3145 29.2403 33.9272 31.0431C32.5399 32.8457 30.757 34.3077 28.7149 35.3167C26.673 36.3257 24.4264 36.8549 22.1474 36.8637V36.9325Z" fill="white"/>
</mask>
<g mask="url(#mask0_51_3983)">
<rect width="171" height="44" fill="#006D48"/>
</g>
</g>
<defs>
<clipPath id="clip0_51_3983">
<rect width="170.5" height="44" fill="white"/>
</clipPath>
</defs>
</svg>
